<svg xmlns="http://www.w3.org/2000/svg" width="48" height="48" viewBox="0 0 48 48" fill="none"><circle cx="24" cy="24" r="24" fill="#3b82f6"/><path fill-rule="evenodd" clip-rule="evenodd" d="M38.3 24.5H9.6v10.3c0 .5.4 1 .9 1h27c.4 0 .8-.5.8-1V24.5zm-17.8 2.6a.8.8 0 000 1.7h7a.8.8 0 000-1.7h-7z" fill="#ffffff"/><path d="M35 19.1l-.4-.6a44.4 44.4 0 01-.5-4.9h-2.6a204 204 0 01-.5 4.9l-.3.6c-.5.8-1.4 2.2-1.4 4h7c0-1.8-.8-3.2-1.3-4zM31.4 12.7h2.9c0-.2-.1-.3-.2-.3V12v-.3c.1-.2-.1-.5-.4-.5h-1.8c-.3 0-.5.3-.4.5l.1.3v.4c-.2 0-.3.1-.3.3zM26 19.1l-.3-.6a44.5 44.5 0 01-.5-4.9h-2.6a204 204 0 01-.5 4.9l-.3.6c-.5.8-1.4 2.2-1.4 4h7c0-1.8-.9-3.2-1.4-4zM22.4 12.7h3c0-.2-.1-.3-.3-.3V12l.2-.3c0-.2-.2-.5-.5-.5H23c-.3 0-.5.3-.5.5l.2.3v.4c-.2 0-.3.1-.3.3zM17.2 19.1l-.3-.6a44.5 44.5 0 01-.5-4.9h-2.6a204 204 0 01-.5 4.9l-.3.6c-.5.8-1.4 2.2-1.4 4h7c0-1.8-.9-3.2-1.4-4zM13.6 12.7h3c0-.2-.1-.3-.3-.3V12l.2-.3c0-.2-.2-.5-.5-.5h-1.8c-.3 0-.5.3-.5.5l.2.3v.4c-.2 0-.3.1-.3.3z" fill="#ffffff"/></svg>